#!OML:ASF I:\Actors\actors\Patient Classification 2\Patient 1\Session 1\actor1.ASF
:FULLY-SPECIFIED
:DEGREES
147
root -0.771511 18.1808 4.07657 12.0813 3.05026 -0.825791
lowerback 28.0991 0.709447 -1.58274
upperback 3.93069 0.432543 -0.132813
thorax -11.1808 0.265041 0.604834
lowerneck -26.1538 -3.30642 -1.93923
upperneck 18.2567 -4.50804 2.84893
head 10.2273 -1.84675 0.6094
rclavicle -3.67752e-015 9.93923e-016
rhumerus 5.22298 20.8876 -88.1026
rradius 68.0152
rwrist -30.9873
rhand -10.8016 -64.637
rfingers 7.12502
rthumb 15.2116 454.058
lclavicle -3.67752e-015 9.93923e-016
lhumerus 3.00211 -29.2397 98.3609
lradius 69.991
lwrist 59.7417
lhand -31.0157 -10.7584
lfingers 7.12502
lthumb -4.29833 19.178
rfemur 1.84703 -5.38318 16.0864
rtibia -24.5593
rfoot 1.68344 -20.1156
rtoes -0.389807
lfemur -0.391357 -1.3892 -11.7949
ltibia -22.547
lfoot 10.1059 12.6071
ltoes -17.653
148
root -0.765828 18.1786 4.08628 11.9629 2.86853 -0.856049
lowerback 28.0152 0.719164 -1.63123
upperback 3.87081 0.427333 -0.161695
thorax -11.2064 0.264164 0.602216
lowerneck -26.1843 -3.30854 -1.82685
upperneck 18.3685 -4.50508 2.63975
head 10.2642 -1.8622 0.516205
rclavicle -9.44227e-015 2.5842e-015
rhumerus 5.12762 20.8985 -88.2292
rradius 67.7796
rwrist -30.9758
rhand -10.1485 -64.9289
rfingers 7.12502
rthumb 15.8407 454.301
lclavicle -9.44227e-015 2.5842e-015
lhumerus 2.70457 -29.1775 98.5482
lradius 69.9779
lwrist 59.8157
lhand -31.2492 -10.9898
lfingers 7.12502
lthumb -4.52382 18.9419
rfemur 1.97728 -5.26444 16.0691
rtibia -24.5484
rfoot 1.63437 -20.0452
rtoes -0.195948
lfemur -0.127344 -1.38764 -11.7976
ltibia -22.6291
lfoot 10.0557 12.7924
ltoes -17.6208
149
root -0.760801 18.176 4.09576 11.8971 2.62728 -0.879345
lowerback 27.8443 0.769787 -1.75188
upperback 3.87003 0.458028 -0.172434
thorax -11.1206 0.282188 0.649548
lowerneck -26.3657 -3.34422 -1.85915
upperneck 18.4825 -4.53011 2.58872
head 10.3369 -1.87919 0.496382
rclavicle -1.02374e-014 -1.78906e-015
rhumerus 5.07993 20.9887 -88.2493
rradius 67.5948
rwrist -30.8663
rhand -9.79165 -64.8906
rfingers 7.12502
rthumb 16.1843 454.235
lclavicle -1.02374e-014 -1.78906e-015
lhumerus 2.51064 -29.0874 98.7001
lradius 69.9649
lwrist 60.071
lhand -31.5099 -11.312
lfingers 7.12502
lthumb -4.77548 18.6141
rfemur 2.02805 -5.10748 16.0468
rtibia -24.5197
rfoot 1.59519 -19.9578
rtoes -0.0408175
lfemur 0.0877092 -1.23602 -11.8211
ltibia -22.7075
lfoot 10.0016 12.8546
ltoes -17.424
150
root -0.755627 18.1745 4.10278 11.859 2.37279 -0.872499
lowerback 27.6232 0.844087 -1.90064
upperback 3.90432 0.512185 -0.190216
thorax -10.9693 0.311284 0.697303
lowerneck -26.4848 -3.40413 -1.9564
upperneck 18.4643 -4.58713 2.64629
head 10.3563 -1.90396 0.521949
rclavicle 2.88238e-015 -3.57812e-015
rhumerus 5.07089 21.1162 -88.2013
rradius 67.3856
rwrist -30.7962
rhand -9.41167 -64.61
rfingers 7.12502
rthumb 16.5501 453.924
lclavicle 2.88238e-015 -3.57812e-015
lhumerus 2.35879 -29.0639 98.8136
lradius 69.9481
lwrist 60.3104
lhand -31.7714 -11.5614
lfingers 7.12502
lthumb -5.02803 18.359
rfemur 2.03518 -4.9759 15.9949
rtibia -24.4865
rfoot 1.6143 -19.8416
rtoes 0.0692472
lfemur 0.265369 -1.04039 -11.888
ltibia -22.786
lfoot 9.94173 12.846
ltoes -17.3134
151
root -0.751074 18.174 4.10606 11.8565 2.17704 -0.895898
lowerback 27.4348 0.908048 -2.00589
upperback 3.90746 0.565183 -0.210612
thorax -10.8705 0.338522 0.717291
lowerneck -26.5553 -3.43614 -1.96416
upperneck 18.4067 -4.62605 2.65028
head 10.3487 -1.92175 0.51764
rclavicle -4.17448e-015 -3.97569e-015
rhumerus 4.99649 21.2051 -88.2234
rradius 67.1584
rwrist -30.8747
rhand -9.43911 -63.6061
rfingers 7.12502
rthumb 16.5237 452.922
lclavicle -4.17448e-015 -3.97569e-015
lhumerus 2.14906 -29.1282 98.8814
lradius 69.8888
lwrist 60.4673
lhand -31.9475 -11.7958
lfingers 7.12502
lthumb -5.19808 18.1205
rfemur 1.9993 -4.86894 15.9852
rtibia -24.4611
rfoot 1.63829 -19.7647
rtoes 0.183002
lfemur 0.36504 -0.892451 -11.9083
ltibia -22.8492
lfoot 9.87431 12.8603
ltoes -17.1131
152
root -0.746358 18.1732 4.10681 11.8867 2.04662 -0.950801
lowerback 27.3043 0.943556 -2.05564
upperback 3.88358 0.598274 -0.216151
thorax -10.8316 0.35534 0.728751
lowerneck -26.6073 -3.46615 -2.02294
upperneck 18.344 -4.6412 2.64831
head 10.3365 -1.93346 0.523538
rclavicle 2.18663e-015 3.97569e-016
rhumerus 4.86282 21.3062 -88.2629
rradius 66.9654
rwrist -31.0376
rhand -9.84333 -61.8393
rfingers 7.12502
rthumb 16.1345 451.188
lclavicle 2.18663e-015 3.97569e-016
lhumerus 1.90946 -29.2087 98.9099
lradius 69.8052
lwrist 60.6298
lhand -32.1801 -12.0917
lfingers 7.12502
lthumb -5.42261 17.8189
rfemur 1.92241 -4.84918 16.0331
rtibia -24.4334
rfoot 1.75982 -19.6787
rtoes -0.0907404
lfemur 0.383723 -0.768939 -11.8854
ltibia -22.8814
lfoot 9.84021 12.8723
ltoes -16.9549
153
root -0.74064 18.1738 4.10634 11.9307 1.96895 -0.97239
lowerback 27.2131 0.952534 -2.08909
upperback 3.88261 0.601662 -0.22118
thorax -10.7859 0.357716 0.741891
lowerneck -26.7114 -3.53967 -2.13377
upperneck 18.2565 -4.70618 2.69448
head 10.3282 -1.96526 0.546301
rclavicle 7.7526e-015 4.96962e-015
rhumerus 4.73045 21.4097 -88.3075
rradius 66.7855
rwrist -31.0613
rhand -9.93786 -60.6935
rfingers 7.12502
rthumb 16.0435 450.049
lclavicle 7.7526e-015 4.96962e-015
lhumerus 1.74446 -29.2918 98.8931
lradius 69.7486
lwrist 60.8397
lhand -32.6172 -12.3261
lfingers 7.12502
lthumb -5.84462 17.5733
rfemur 1.83258 -4.90422 16.0572
rtibia -24.3945
rfoot 1.92629 -19.5727
rtoes -0.657315
lfemur 0.3596 -0.692965 -11.8971
ltibia -22.8958
lfoot 9.83834 12.8682
ltoes -17.0191
